<svg xmlns="http://www.w3.org/2000/svg" viewBox="0 0 512 512" width="512" height="512" shape-rendering="crispEdges">
  <title>Spider_XHS</title>
  <rect x="88" y="60" width="308" height="28" fill="#2B0A12"/>
  <rect x="60" y="88" width="28" height="28" fill="#2B0A12"/>
  <rect x="88" y="88" width="28" height="28" fill="#C8102E"/>
  <rect x="116" y="88" width="280" height="28" fill="#FF2442"/>
  <rect x="396" y="88" width="28" height="28" fill="#2B0A12"/>
  <rect x="60" y="116" width="28" height="28" fill="#2B0A12"/>
  <rect x="88" y="116" width="28" height="28" fill="#C8102E"/>
  <rect x="116" y="116" width="28" height="28" fill="#FF2442"/>
  <rect x="144" y="116" width="56" height="28" fill="#FF7A8C"/>
  <rect x="200" y="116" width="196" height="28" fill="#FF2442"/>
  <rect x="396" y="116" width="56" height="28" fill="#2B0A12"/>
  <rect x="60" y="144" width="28" height="28" fill="#2B0A12"/>
  <rect x="88" y="144" width="28" height="28" fill="#C8102E"/>
  <rect x="116" y="144" width="28" height="28" fill="#FF2442"/>
  <rect x="144" y="144" width="28" height="28" fill="#FF7A8C"/>
  <rect x="172" y="144" width="224" height="28" fill="#FF2442"/>
  <rect x="396" y="144" width="28" height="28" fill="#2B0A12"/>
  <rect x="424" y="144" width="28" height="28" fill="#FFE6DF"/>
  <rect x="452" y="144" width="28" height="28" fill="#2B0A12"/>
  <rect x="60" y="172" width="28" height="28" fill="#2B0A12"/>
  <rect x="88" y="172" width="28" height="28" fill="#C8102E"/>
  <rect x="116" y="172" width="84" height="28" fill="#FF2442"/>
  <rect x="200" y="172" width="56" height="28" fill="#FFFFFF"/>
  <rect x="256" y="172" width="28" height="28" fill="#FF2442"/>
  <rect x="284" y="172" width="56" height="28" fill="#FFFFFF"/>
  <rect x="340" y="172" width="56" height="28" fill="#FF2442"/>
  <rect x="396" y="172" width="28" height="28" fill="#2B0A12"/>
  <rect x="424" y="172" width="28" height="28" fill="#FFE6DF"/>
  <rect x="452" y="172" width="28" height="28" fill="#2B0A12"/>
  <rect x="60" y="200" width="28" height="28" fill="#2B0A12"/>
  <rect x="88" y="200" width="28" height="28" fill="#C8102E"/>
  <rect x="116" y="200" width="56" height="28" fill="#FF2442"/>
  <rect x="172" y="200" width="196" height="28" fill="#FFFFFF"/>
  <rect x="368" y="200" width="28" height="28" fill="#FF2442"/>
  <rect x="396" y="200" width="28" height="28" fill="#2B0A12"/>
  <rect x="424" y="200" width="28" height="28" fill="#FFE6DF"/>
  <rect x="452" y="200" width="28" height="28" fill="#2B0A12"/>
  <rect x="60" y="228" width="28" height="28" fill="#2B0A12"/>
  <rect x="88" y="228" width="28" height="28" fill="#C8102E"/>
  <rect x="116" y="228" width="56" height="28" fill="#FF2442"/>
  <rect x="172" y="228" width="196" height="28" fill="#FFFFFF"/>
  <rect x="368" y="228" width="28" height="28" fill="#FF2442"/>
  <rect x="396" y="228" width="28" height="28" fill="#2B0A12"/>
  <rect x="424" y="228" width="28" height="28" fill="#FFE6DF"/>
  <rect x="452" y="228" width="28" height="28" fill="#2B0A12"/>
  <rect x="60" y="256" width="28" height="28" fill="#2B0A12"/>
  <rect x="88" y="256" width="28" height="28" fill="#C8102E"/>
  <rect x="116" y="256" width="84" height="28" fill="#FF2442"/>
  <rect x="200" y="256" width="140" height="28" fill="#FFFFFF"/>
  <rect x="340" y="256" width="56" height="28" fill="#FF2442"/>
  <rect x="396" y="256" width="28" height="28" fill="#2B0A12"/>
  <rect x="424" y="256" width="28" height="28" fill="#FFE6DF"/>
  <rect x="452" y="256" width="28" height="28" fill="#2B0A12"/>
  <rect x="60" y="284" width="28" height="28" fill="#2B0A12"/>
  <rect x="88" y="284" width="28" height="28" fill="#C8102E"/>
  <rect x="116" y="284" width="112" height="28" fill="#FF2442"/>
  <rect x="228" y="284" width="84" height="28" fill="#FFFFFF"/>
  <rect x="312" y="284" width="84" height="28" fill="#FF2442"/>
  <rect x="396" y="284" width="28" height="28" fill="#2B0A12"/>
  <rect x="424" y="284" width="28" height="28" fill="#FFE6DF"/>
  <rect x="452" y="284" width="28" height="28" fill="#2B0A12"/>
  <rect x="60" y="312" width="28" height="28" fill="#2B0A12"/>
  <rect x="88" y="312" width="28" height="28" fill="#C8102E"/>
  <rect x="116" y="312" width="140" height="28" fill="#FF2442"/>
  <rect x="256" y="312" width="28" height="28" fill="#FFFFFF"/>
  <rect x="284" y="312" width="112" height="28" fill="#FF2442"/>
  <rect x="396" y="312" width="28" height="28" fill="#2B0A12"/>
  <rect x="424" y="312" width="28" height="28" fill="#FFE6DF"/>
  <rect x="452" y="312" width="28" height="28" fill="#2B0A12"/>
  <rect x="60" y="340" width="28" height="28" fill="#2B0A12"/>
  <rect x="88" y="340" width="28" height="28" fill="#C8102E"/>
  <rect x="116" y="340" width="280" height="28" fill="#FF2442"/>
  <rect x="396" y="340" width="28" height="28" fill="#2B0A12"/>
  <rect x="424" y="340" width="28" height="28" fill="#FFE6DF"/>
  <rect x="452" y="340" width="28" height="28" fill="#2B0A12"/>
  <rect x="60" y="368" width="28" height="28" fill="#2B0A12"/>
  <rect x="88" y="368" width="28" height="28" fill="#C8102E"/>
  <rect x="116" y="368" width="280" height="28" fill="#FF2442"/>
  <rect x="396" y="368" width="28" height="28" fill="#2B0A12"/>
  <rect x="424" y="368" width="28" height="28" fill="#FFE6DF"/>
  <rect x="452" y="368" width="28" height="28" fill="#2B0A12"/>
  <rect x="60" y="396" width="364" height="28" fill="#2B0A12"/>
  <rect x="424" y="396" width="28" height="28" fill="#FFE6DF"/>
  <rect x="452" y="396" width="28" height="28" fill="#2B0A12"/>
  <rect x="88" y="424" width="28" height="28" fill="#2B0A12"/>
  <rect x="116" y="424" width="336" height="28" fill="#FFE6DF"/>
  <rect x="452" y="424" width="28" height="28" fill="#2B0A12"/>
  <rect x="116" y="452" width="336" height="28" fill="#2B0A12"/>
</svg>
